<?xml version="1.0" standalone="no"?>
<!DOCTYPE svg PUBLIC "-//W3C//DTD SVG 20010904//EN"
 "http://www.w3.org/TR/2001/REC-SVG-20010904/DTD/svg10.dtd">
<svg version="1.0" xmlns="http://www.w3.org/2000/svg"
 width="1680.000000pt" height="1050.000000pt" viewBox="0 0 1680.000000 1050.000000"
 preserveAspectRatio="xMidYMid meet">
<metadata>
Created by potrace 1.13, written by Peter Selinger 2001-2015
</metadata>
<g transform="translate(0.000000,1050.000000) scale(0.100000,-0.100000)"
fill="#000000" stroke="none">
<path d="M0 5250 l0 -5250 8400 0 8400 0 0 5250 0 5250 -8400 0 -8400 0 0
-5250z m2664 4280 c27 -10 56 -56 56 -89 0 -11 -29 -76 -64 -143 -139 -265
-180 -468 -141 -694 25 -142 61 -235 168 -437 53 -100 54 -124 6 -169 -45 -43
-92 -39 -139 11 -46 48 -138 226 -178 346 -51 151 -67 244 -66 405 0 123 4
161 26 251 32 127 74 235 135 349 92 171 124 198 197 170z m716 -29 c77 -81
188 -336 227 -521 22 -105 24 -325 4 -425 -43 -219 -196 -544 -270 -575 -61
-25 -131 21 -131 87 0 13 29 78 65 147 137 259 179 467 140 692 -22 125 -56
218 -141 383 -82 158 -84 175 -33 224 45 42 92 38 139 -12z m1609 5 c89 -46
50 -186 -52 -186 -13 0 -32 -6 -43 -14 -18 -13 -19 -31 -24 -238 -5 -213 -6
-225 -29 -265 l-25 -43 25 -42 c23 -41 24 -52 29 -281 5 -222 6 -240 24 -253
11 -8 30 -14 43 -14 54 0 103 -48 103 -101 0 -34 -28 -76 -60 -89 -68 -28
-185 11 -245 82 -56 66 -60 85 -65 338 l-5 234 -25 13 c-14 7 -38 15 -53 18
-106 22 -102 174 5 192 76 12 78 17 78 242 0 210 7 250 50 312 63 87 194 133
269 95z m3430 -1 c16 -8 34 -28 40 -46 15 -45 15 -1383 0 -1428 -12 -33 -52
-61 -89 -61 -33 0 -75 26 -88 55 -16 36 -17 1387 -1 1434 19 54 82 75 138 46z
m4673 -1 c61 -20 121 -73 150 -132 22 -44 23 -62 28 -277 l5 -229 25 -13 c14
-7 37 -15 51 -17 46 -10 71 -38 76 -86 7 -60 -21 -97 -79 -107 -77 -12 -78
-16 -78 -246 0 -241 -8 -276 -80 -347 -93 -94 -241 -107 -278 -25 -32 70 15
145 91 145 13 0 32 6 43 14 18 13 19 31 24 243 5 219 6 230 29 271 l25 42 -25
43 c-23 40 -24 51 -29 275 -5 217 -6 235 -24 248 -11 8 -30 14 -43 14 -65 0
-111 59 -99 125 13 67 92 92 188 59z m-2247 -148 c20 -9 50 -12 75 -9 52 7 84
-9 105 -53 28 -60 -1 -105 -101 -159 l-52 -27 -42 31 c-59 43 -119 43 -161 2
-33 -33 -37 -67 -13 -112 8 -17 66 -103 127 -192 l111 -160 12 39 c7 21 18 58
24 82 l11 42 73 0 c40 0 87 -5 105 -11 33 -12 61 -52 61 -89 0 -34 -27 -76
-58 -89 -23 -10 -33 -25 -51 -79 -12 -37 -25 -73 -28 -79 -3 -9 6 -13 27 -13
38 0 86 -24 100 -49 18 -35 12 -88 -14 -118 -23 -27 -29 -28 -127 -31 -84 -3
-104 -1 -111 11 -7 14 -15 13 -63 -9 -103 -47 -270 -42 -375 11 -92 47 -148
134 -157 244 -10 123 40 235 137 308 l48 36 -31 65 c-51 109 -47 190 13 285
31 49 98 104 153 124 45 16 161 16 202 -1z m-9596 -224 c106 -54 85 -211 -32
-243 -131 -35 -238 79 -179 190 35 66 137 91 211 53z m6000 0 c106 -54 85
-211 -32 -243 -131 -35 -238 79 -179 190 35 66 137 91 211 53z m2400 0 c106
-54 85 -211 -32 -243 -131 -35 -238 79 -179 190 35 66 137 91 211 53z m4748
-1 c111 -51 89 -214 -33 -241 -55 -13 -125 5 -159 40 -35 37 -44 103 -20 149
19 38 82 71 135 71 19 0 54 -9 77 -19z m1252 1 c106 -54 85 -211 -32 -243
-131 -35 -238 79 -179 190 35 66 137 91 211 53z m-1198 -619 c-92 -181 -274
-520 -284 -529 -27 -26 -56 -26 -83 1 -20 20 -24 32 -20 53 13 52 138 497 143
505 2 4 63 7 134 7 l129 0 -19 -37z m-13187 -24 c39 -31 59 -76 53 -121 -10
-77 -62 -118 -149 -118 -142 0 -202 169 -85 240 46 28 145 28 181 -1z m6000 0
c39 -31 59 -76 53 -121 -10 -77 -62 -118 -149 -118 -142 0 -202 169 -85 240
46 28 145 28 181 -1z m2400 0 c39 -31 59 -76 53 -121 -10 -77 -62 -118 -149
-118 -142 0 -202 169 -85 240 46 28 145 28 181 -1z m6000 0 c39 -31 59 -76 53
-121 -10 -77 -62 -118 -149 -118 -142 0 -202 169 -85 240 46 28 145 28 181 -1z
m-3966 -1281 c2 -21 8 -38 14 -38 7 0 9 15 5 40 l-5 40 55 -1 c58 -2 58 -2 67
-61 3 -29 1 -38 -10 -38 -10 0 -14 12 -14 41 0 27 -4 38 -11 33 -7 -4 -9 -21
-6 -40 4 -25 2 -34 -9 -34 -10 0 -14 12 -14 41 0 28 -4 39 -12 36 -8 -2 -13
-19 -12 -41 1 -34 0 -36 -32 -36 -33 0 -34 1 -34 41 0 27 -4 38 -11 33 -7 -4
-9 -21 -6 -40 4 -25 2 -34 -9 -34 -10 0 -14 12 -14 41 0 28 -4 39 -12 36 -8
-2 -13 -19 -12 -41 1 -27 -3 -36 -15 -36 -13 0 -16 11 -16 50 l0 50 55 -2 55
-3 3 -37z m-3198 -883 c27 -67 56 -77 47 -16 l-5 39 38 0 c45 1 55 -9 63 -60
5 -33 3 -38 -13 -38 -16 0 -18 5 -13 34 6 36 -5 50 -31 40 -17 -7 -22 -54 -6
-54 6 0 10 -4 10 -10 0 -5 -25 -10 -56 -10 -51 0 -55 2 -49 20 5 16 2 20 -19
20 -14 0 -26 -4 -26 -10 0 -5 5 -10 10 -10 6 0 10 -4 10 -10 0 -5 -13 -10 -30
-10 -16 0 -30 1 -30 3 0 2 9 22 20 45 22 46 25 62 10 62 -5 0 -10 5 -10 10 0
6 13 10 29 10 25 0 31 -6 51 -55z m1838 -2717 c2 -21 8 -38 14 -38 7 0 9 15 5
40 l-5 40 55 -1 c58 -2 58 -2 67 -61 3 -29 1 -38 -10 -38 -10 0 -14 12 -14 41
0 27 -4 38 -11 33 -7 -4 -9 -21 -6 -40 4 -25 2 -34 -9 -34 -10 0 -14 12 -14
41 0 28 -4 39 -12 36 -8 -2 -13 -19 -12 -41 1 -34 0 -36 -32 -36 -33 0 -34 1
-34 41 0 27 -4 38 -11 33 -7 -4 -9 -21 -6 -40 4 -25 2 -34 -9 -34 -10 0 -14
12 -14 41 0 28 -4 39 -12 36 -8 -2 -13 -19 -12 -41 1 -27 -3 -36 -15 -36 -13
0 -16 11 -16 50 l0 50 55 -2 55 -3 3 -37z m450 -600 c2 -21 8 -38 14 -38 7 0
9 15 5 40 l-5 40 55 -1 c58 -2 58 -2 67 -61 3 -29 1 -38 -10 -38 -10 0 -14 12
-14 41 0 27 -4 38 -11 33 -7 -4 -9 -21 -6 -40 4 -25 2 -34 -9 -34 -10 0 -14
12 -14 41 0 28 -4 39 -12 36 -8 -2 -13 -19 -12 -41 1 -34 0 -36 -32 -36 -33 0
-34 1 -34 41 0 27 -4 38 -11 33 -7 -4 -9 -21 -6 -40 4 -25 2 -34 -9 -34 -10 0
-14 12 -14 41 0 28 -4 39 -12 36 -8 -2 -13 -19 -12 -41 1 -27 -3 -36 -15 -36
-13 0 -16 11 -16 50 l0 50 55 -2 55 -3 3 -37z m-2808 -1742 c0 -19 4 -22 23
-19 29 6 43 -11 50 -59 5 -35 4 -38 -19 -38 -13 0 -24 5 -24 10 0 6 5 10 10
10 12 0 13 47 1 54 -18 11 -41 -6 -41 -30 0 -13 5 -24 10 -24 6 0 10 -4 10
-10 0 -5 -10 -10 -23 -10 -22 0 -23 3 -19 60 4 53 2 59 -12 54 -10 -4 -16 -18
-16 -38 0 -68 -23 -101 -36 -51 -3 14 -10 25 -14 25 -4 0 -11 -11 -14 -25 -11
-42 -33 -30 -40 23 -4 26 -9 55 -12 65 -4 13 1 17 25 17 17 0 31 -4 31 -10 0
-5 -7 -10 -15 -10 -8 0 -15 -9 -15 -20 0 -23 15 -27 24 -5 8 22 25 18 36 -7 8
-22 9 -22 9 5 1 15 -3 27 -9 27 -23 0 -8 19 18 23 58 9 62 8 62 -17z"/>
<path d="M10575 8688 c-51 -40 -69 -121 -40 -177 27 -54 144 -78 221 -46 l36
15 -34 47 c-19 27 -56 78 -82 116 -26 37 -54 67 -61 67 -7 0 -25 -10 -40 -22z"/>
</g>
</svg>
